<svg width="136" height="137" viewBox="0 0 136 137" fill="none" xmlns="http://www.w3.org/2000/svg">
<path d="M129.769 70.6691C132.348 70.6691 134.123 72.7506 133.719 75.2953L132.492 83.0011C132.13 85.2769 130.163 86.9006 127.929 86.9006C127.687 86.9006 127.442 86.882 127.195 86.842C124.693 86.4454 122.981 84.1057 123.346 81.6063L115.837 81.3694C114.999 81.3428 114.248 81.8805 114 82.6844C112.763 86.7063 111.017 90.5046 108.834 94.0049C108.373 94.7448 108.483 95.7031 109.103 96.3153L113.7 100.867C114.469 99.89 115.613 99.379 116.769 99.379C117.596 99.379 118.43 99.6398 119.138 100.183C121.15 100.183 122.286 102.491 121.065 104.085L116.204 110.423C115.438 111.426 114.277 111.95 113.106 111.95C112.276 111.95 111.442 111.69 110.734 111.147C109.036 109.845 108.706 107.423 109.981 105.717L104.226 102.363C103.494 101.934 102.568 102.059 101.966 102.658C96.7335 107.907 90.3026 111.964 83.1212 114.383C82.3067 114.66 81.7823 115.451 81.8568 116.308L82.4797 123.614C84.9365 123.119 87.3401 124.668 87.9017 127.109C88.4793 129.627 86.7731 132.153 84.2471 132.696L76.5333 134.355C76.2086 134.424 75.8945 134.458 75.5884 134.458C73.4909 134.458 71.9045 132.888 71.9045 130.617C71.3721 128.137 72.9346 125.699 75.3994 125.137L72.9053 118.041C72.6258 117.25 71.8539 116.742 71.0181 116.8C69.8895 116.88 68.7503 116.92 67.6031 116.92C55.7236 116.92 44.845 112.651 36.4072 105.568C35.8056 105.062 34.9512 104.99 34.2724 105.387L27.815 109.169L28.8265 110.258C30.003 111.53 30.5859 113.14 30.5859 114.745C30.5859 116.521 29.8752 118.291 28.4698 119.592C25.7921 122.071 21.6131 121.911 19.135 119.233L12.2277 111.775C11.0485 110.505 10.4683 108.895 10.4683 107.29C10.4683 105.514 11.1789 103.744 12.5844 102.443C15.2594 99.9646 19.4384 100.124 21.9165 102.799L22.928 103.891L27.3066 97.5743C27.7431 96.9434 27.7511 96.1103 27.3226 95.4742C22.1055 87.7364 19.0604 78.4122 19.0604 68.3774C19.0604 66.4343 19.1749 64.5205 19.3985 62.6386C19.497 61.7842 19.0072 60.9723 18.2034 60.6689L11.328 58.0923C10.8036 60.1898 8.92177 61.5978 6.84559 61.5978C6.49424 61.5978 6.1349 61.5579 5.77823 61.4727C3.16437 61.4727 1.51674 59.3912 2.1183 56.8466L3.95225 49.0902C4.54583 46.5775 7.10911 44.9219 9.61383 45.5527C12.0414 46.1649 13.5399 48.6004 12.9969 51.0439L20.4659 51.8371C21.3016 51.9276 22.0895 51.4432 22.3956 50.6606C23.7984 47.0885 25.611 43.7214 27.7751 40.6204C28.2675 39.9124 28.2196 38.9648 27.65 38.318L22.8002 32.8082C21.1207 34.6661 18.2646 34.8497 16.3614 33.2207C14.3997 31.5412 14.2719 28.4934 15.9781 26.5557L20.6096 21.304C21.5252 20.2659 22.8002 19.7362 24.0832 19.7362C25.1692 19.7362 26.2605 20.1169 27.1389 20.8914C29.0421 22.5683 29.2364 25.459 27.5887 27.3755L33.8146 31.5971C34.5093 32.0682 35.4303 32.0176 36.0691 31.472C43.2373 25.3392 52.2154 21.2614 62.0906 20.1461C62.9477 20.0503 63.6264 19.3849 63.7355 18.5304L64.6618 11.2478C63.3975 11.2319 62.2556 10.7102 61.4305 9.87438C60.6026 9.03858 60.0942 7.89136 60.0942 6.62436C60.0942 4.06906 62.1651 1.99554 64.7204 1.99554H71.8433C73.1209 1.99554 74.2788 2.51459 75.1146 3.35038C75.9504 4.18884 76.4694 5.34671 76.4694 6.62436C76.4694 9.15836 74.4305 11.2159 71.9045 11.2478L72.8521 18.7061C72.9586 19.5419 73.6107 20.1994 74.4438 20.3165C83.0972 21.5356 91.016 25.0358 97.5746 30.1916C98.232 30.708 99.1503 30.7293 99.8264 30.2369L105.831 25.8716C104.78 24.7616 104.256 23.3403 104.256 21.9189C104.256 20.4469 104.817 18.975 105.938 17.8544C108.171 15.6211 111.778 15.669 113.952 17.9608L120.381 24.7457C121.419 25.8423 121.935 27.2424 121.935 28.6425C121.935 30.1437 121.341 31.6423 120.165 32.7576C117.895 34.911 114.306 34.8151 112.153 32.542L112.1 32.4861L107.418 38.2462C106.893 38.893 106.861 39.8086 107.341 40.49C112.89 48.3822 116.146 57.9991 116.146 68.3774C116.146 69.096 116.13 69.8094 116.1 70.5174C116.061 71.3772 116.612 72.1517 117.437 72.394L124.485 74.4542C124.914 71.9628 127.267 70.2725 129.769 70.6691Z" fill="#F59BA3"/>
<path d="M60.0939 104.636C66.0585 104.636 70.8938 99.8004 70.8938 93.8358C70.8938 87.8712 66.0585 83.0359 60.0939 83.0359C54.1293 83.0359 49.2941 87.8712 49.2941 93.8358C49.2941 99.8004 54.1293 104.636 60.0939 104.636Z" fill="#F77F89"/>
<path d="M93.4797 69.8874C97.6973 69.8874 101.116 66.4683 101.116 62.2507C101.116 58.0332 97.6973 54.6141 93.4797 54.6141C89.2621 54.6141 85.8431 58.0332 85.8431 62.2507C85.8431 66.4683 89.2621 69.8874 93.4797 69.8874Z" fill="#E7ABB0"/>
<path d="M37.0141 64.8776C37.0141 48.1681 43.5402 32.978 54.1718 21.7163C47.4205 23.6565 41.2657 27.026 36.0691 31.4719C35.4303 32.0176 34.5093 32.0682 33.8146 31.597L27.5887 27.3755C29.2364 25.459 29.0421 22.5683 27.1389 20.8914C26.2605 20.1168 25.1692 19.7362 24.0832 19.7362C22.8002 19.7362 21.5252 20.2659 20.6096 21.304L15.9781 26.5557C14.2719 28.4934 14.3997 31.5411 16.3614 33.2207C18.2646 34.8497 21.1207 34.6661 22.8002 32.8081L27.65 38.318C28.2196 38.9648 28.2675 39.9124 27.7751 40.6204C25.6111 43.7214 23.7984 47.0885 22.3956 50.6606C22.0895 51.4432 21.3017 51.9276 20.4659 51.8371L12.9969 51.0439C13.5399 48.6004 12.0414 46.1649 9.61383 45.5527C7.10911 44.9218 4.54583 46.5775 3.95225 49.0902L2.1183 56.8466C1.51674 59.3912 3.16437 61.4727 5.77823 61.4727C6.1349 61.5579 6.49424 61.5978 6.84559 61.5978C8.92177 61.5978 10.8036 60.1897 11.328 58.0923L18.2034 60.6689C19.0072 60.9723 19.497 61.7841 19.3985 62.6386C19.1749 64.5204 19.0604 66.4342 19.0604 68.3773C19.0604 78.4122 22.1055 87.7364 27.3226 95.4741C27.7511 96.1103 27.7431 96.9434 27.3066 97.5743L22.928 103.891L21.9165 102.799C19.4384 100.124 15.2594 99.9645 12.5844 102.443C11.179 103.744 10.4683 105.514 10.4683 107.29C10.4683 108.895 11.0485 110.505 12.2277 111.775L19.135 119.233C21.6131 121.911 25.7921 122.071 28.4698 119.592C29.8752 118.291 30.5859 116.521 30.5859 114.745C30.5859 113.14 30.003 111.53 28.8265 110.258L27.815 109.169L34.2724 105.387C34.9512 104.99 35.8056 105.062 36.4072 105.568C44.0912 112.018 53.8056 116.135 64.4505 116.819C47.8895 105.494 37.0141 86.4553 37.0141 64.8776Z" fill="#F77F89"/>
<path d="M53.4547 74.159C63.1944 74.159 71.09 66.2634 71.09 56.5237C71.09 46.784 63.1944 38.8884 53.4547 38.8884C43.715 38.8884 35.8194 46.784 35.8194 56.5237C35.8194 66.2634 43.715 74.159 53.4547 74.159Z" fill="#E7ABB0"/>
<path d="M69.4406 45.135C68.8001 44.2375 67.5536 44.0291 66.6561 44.6695C65.7585 45.3099 65.5501 46.5567 66.1905 47.454C68.0897 50.1155 69.0935 53.2516 69.0935 56.5237C69.0935 65.147 62.0781 72.1624 53.4548 72.1624C44.8315 72.1624 37.8158 65.147 37.8158 56.5237C37.8158 47.9004 44.8315 40.8847 53.4548 40.8847C55.9049 40.8847 58.2545 41.4389 60.439 42.5316C61.4249 43.0251 62.6243 42.6255 63.1175 41.6393C63.6108 40.6534 63.2115 39.4543 62.2253 38.9608C59.4813 37.5881 56.5304 36.8921 53.4548 36.8921C42.6299 36.8921 33.8232 45.6988 33.8232 56.5237C33.8232 67.3486 42.6299 76.155 53.4548 76.155C64.2797 76.155 73.0861 67.3486 73.0861 56.5237C73.0864 52.4155 71.8258 48.4774 69.4406 45.135Z" fill="black" fill-opacity="0.29"/>
<path d="M60.094 85.0323C63.7593 85.0323 67.0774 87.3406 68.3511 90.7767C68.7341 91.8105 69.8829 92.338 70.9167 91.9545C71.9506 91.5712 72.4779 90.4226 72.0946 89.3888C70.2433 84.3951 65.4205 81.0396 60.094 81.0396C53.0382 81.0396 47.2978 86.78 47.2978 93.8358C47.2978 100.892 53.0382 106.632 60.094 106.632C64.9874 106.632 69.3806 103.906 71.5593 99.519C72.0496 98.5314 71.6466 97.3334 70.6591 96.8431C69.6716 96.3533 68.4735 96.756 67.9832 97.7433C66.4838 100.763 63.4609 102.639 60.0943 102.639C55.24 102.639 51.2907 98.6901 51.2907 93.8358C51.2907 88.9816 55.2395 85.0323 60.094 85.0323Z" fill="black" fill-opacity="0.29"/>
<path d="M103.113 62.251C103.113 56.9392 98.7913 52.6181 93.4797 52.6181C88.1682 52.6181 83.8468 56.9395 83.8468 62.251C83.8468 67.5626 88.1682 71.884 93.4797 71.884C98.7913 71.884 103.113 67.5626 103.113 62.251ZM93.4797 67.8913C90.3695 67.8913 87.8395 65.361 87.8395 62.251C87.8395 59.1408 90.3697 56.6108 93.4797 56.6108C96.5897 56.6108 99.12 59.141 99.12 62.251C99.12 65.361 96.5897 67.8913 93.4797 67.8913Z" fill="black" fill-opacity="0.29"/>
<path d="M91.5084 44.1877C92.6109 44.1877 93.5048 43.2939 93.5048 42.1914C93.5048 41.0889 92.6109 40.1951 91.5084 40.1951H85.8431C84.7406 40.1951 83.8468 41.0889 83.8468 42.1914C83.8468 43.2939 84.7406 44.1877 85.8431 44.1877H91.5084Z" fill="black" fill-opacity="0.29"/>
<path d="M35.8195 81.0396C34.717 81.0396 33.8232 81.9335 33.8232 83.036C33.8232 84.1385 34.717 85.0323 35.8195 85.0323H40.456C41.5585 85.0323 42.4524 84.1385 42.4524 83.036C42.4524 81.9335 41.5585 81.0396 40.456 81.0396H35.8195Z" fill="black" fill-opacity="0.29"/>
<path d="M78.909 77.3132C77.8064 77.3132 76.9126 78.207 76.9126 79.3095C76.9126 80.412 77.8064 81.3058 78.909 81.3058H82.649C83.7515 81.3058 84.6453 80.412 84.6453 79.3095C84.6453 78.207 83.7515 77.3132 82.649 77.3132H78.909Z" fill="black" fill-opacity="0.29"/>
<path d="M89.3031 93.7411C88.2006 93.7411 87.3068 94.6349 87.3068 95.7374C87.3068 96.8399 88.2006 97.7337 89.3031 97.7337H93.7232C94.8257 97.7337 95.7195 96.8399 95.7195 95.7374C95.7195 94.6349 94.8257 93.7411 93.7232 93.7411H89.3031Z" fill="black" fill-opacity="0.29"/>
<path d="M134.381 70.733C133.296 69.4623 131.68 68.7175 129.928 68.6755C127.181 68.3049 124.558 69.7066 123.262 72.0163L118.098 70.507C118.128 69.7961 118.143 69.08 118.143 68.3773C118.143 64.052 117.599 59.7993 116.54 55.6954L121.524 53.3251C122.52 52.8515 122.943 51.6606 122.47 50.6649C121.996 49.6694 120.806 49.2456 119.809 49.7194L115.374 51.8289C113.858 47.4535 111.735 43.2849 109.033 39.4242L112.409 35.2695C113.507 35.911 114.755 36.2695 116.062 36.3046C118.107 36.3584 120.053 35.6142 121.539 34.2058C124.559 31.3439 124.724 26.5226 121.906 23.459C121.16 22.6474 119.897 22.5947 119.085 23.3408C118.274 24.0871 118.221 25.3499 118.967 26.1614C120.317 27.6289 120.238 29.9377 118.793 31.308C118.081 31.9825 117.148 32.3378 116.169 32.3133C115.188 32.287 114.277 31.8805 113.602 31.1688L113.548 31.1115C113.153 30.6944 112.594 30.47 112.023 30.49C111.449 30.5121 110.912 30.7801 110.55 31.226L105.87 36.9858C104.786 38.3188 104.72 40.2323 105.709 41.6386C111.231 49.4937 114.15 58.7396 114.15 68.3771C114.15 69.0542 114.135 69.7455 114.105 70.4306C114.026 72.2148 115.166 73.81 116.877 74.3096L123.926 76.3696C124.472 76.5298 125.06 76.4481 125.543 76.147C126.025 75.846 126.357 75.353 126.453 74.7925C126.696 73.3815 128.044 72.4166 129.456 72.6412C129.56 72.6577 129.665 72.666 129.77 72.666C130.423 72.666 130.982 72.8999 131.344 73.3248C131.707 73.7496 131.85 74.3384 131.747 74.9828L130.521 82.687C130.411 83.3809 130.037 83.9902 129.468 84.4028C128.899 84.8153 128.205 84.9814 127.51 84.8712C126.097 84.6463 125.116 83.3109 125.323 81.8941C125.405 81.3311 125.244 80.7599 124.878 80.3236C124.513 79.8874 123.979 79.6278 123.41 79.61L115.901 79.3739C114.174 79.326 112.604 80.4389 112.094 82.0958C110.921 85.9053 109.254 89.557 107.141 92.9497C106.181 94.4909 106.41 96.4585 107.698 97.7345L111.867 101.863C112.844 102.83 114.402 102.873 115.415 101.959C116.48 100.998 118.695 100.868 119.722 101.705C119.804 101.772 119.89 101.832 119.981 101.884C120.546 102.212 120.911 102.695 121.011 103.244C121.112 103.794 120.94 104.375 120.528 104.881L115.598 110.927C115.154 111.471 114.524 111.81 113.825 111.881C113.126 111.953 112.441 111.747 111.897 111.303C110.895 110.486 110.638 108.455 111.378 107.203C111.727 106.614 111.823 105.923 111.65 105.258C111.478 104.598 111.041 104.021 110.451 103.677L105.234 100.637C103.72 99.7543 101.796 100.006 100.556 101.25C95.491 106.327 89.2422 110.214 82.4845 112.493C80.7924 113.064 79.7163 114.702 79.868 116.478L80.4919 123.785C80.5403 124.352 80.8283 124.871 81.2835 125.212C81.7387 125.554 82.3181 125.685 82.8755 125.572C84.2841 125.289 85.6363 126.161 85.9576 127.557C86.1082 128.213 85.9815 128.904 85.6009 129.502C85.1968 130.137 84.5514 130.59 83.8295 130.745L76.1143 132.403C75.4846 132.538 74.919 132.436 74.5208 132.114C74.1226 131.793 73.9035 131.261 73.9035 130.617C73.9035 130.476 73.8886 130.335 73.859 130.197C73.5585 128.798 74.4497 127.401 75.8455 127.083C76.4002 126.956 76.8745 126.599 77.1492 126.101C77.4239 125.603 77.4732 125.011 77.2845 124.474L74.7896 117.378C74.2154 115.745 72.6093 114.689 70.88 114.81C69.7916 114.886 68.6896 114.925 67.6044 114.925C56.6752 114.925 46.0524 111.059 37.6925 104.039C36.4476 102.993 34.6677 102.843 33.2644 103.665L26.8086 107.446C26.2866 107.752 25.9313 108.277 25.8426 108.876C25.754 109.475 25.9416 110.081 26.3529 110.525L27.363 111.616C28.1996 112.519 28.634 113.693 28.5872 114.923C28.5401 116.153 28.0168 117.291 27.1139 118.128C25.2498 119.854 22.3286 119.742 20.6021 117.878L13.693 110.419C11.9666 108.555 12.0784 105.634 13.9424 103.907C15.8062 102.181 18.7275 102.293 20.4541 104.157L21.464 105.247C21.8753 105.691 22.4659 105.924 23.0691 105.882C23.6728 105.84 24.2243 105.526 24.5692 105.028L28.9489 98.7127C29.8619 97.3962 29.8733 95.6876 28.9785 94.3596C23.7965 86.6719 21.0576 77.6874 21.0576 68.3779C21.0576 66.5444 21.1667 64.6921 21.3815 62.872C21.591 61.0995 20.5723 59.4253 18.905 58.8003L12.0312 56.2237C11.4984 56.0241 10.9056 56.0611 10.4022 56.3257C9.89864 56.5902 9.53158 57.0571 9.3937 57.6089C9.04661 58.9978 7.63081 59.8605 6.23924 59.5307C6.08859 59.495 5.93447 59.4772 5.77956 59.4772C5.1378 59.4772 4.61556 59.2637 4.30866 58.8759C4.00203 58.4881 3.91446 57.9307 4.06192 57.3063L5.89641 49.5491C6.06623 48.8312 6.53204 48.1956 7.17459 47.8051C7.78094 47.4367 8.4738 47.3244 9.12699 47.4886C10.517 47.8386 11.361 49.21 11.0483 50.6108C10.9245 51.1661 11.0432 51.7477 11.3754 52.2098C11.7073 52.6719 12.2202 52.9705 12.7861 53.0304L20.2556 53.8233C21.9796 54.0067 23.6232 53.0056 24.2565 51.3905C25.5871 47.997 27.3223 44.7576 29.4134 41.7623C30.4371 40.2962 30.3285 38.3372 29.1499 36.9983L24.298 31.4887C23.9222 31.0618 23.3818 30.8153 22.813 30.8116C22.2495 30.8158 21.7006 31.0469 21.319 31.469C20.3565 32.5335 18.7493 32.6373 17.6606 31.7051C17.1496 31.2675 16.8408 30.6369 16.791 29.9294C16.7383 29.1788 16.988 28.4306 17.4762 27.8767L22.1066 22.6232C22.571 22.0961 23.2131 21.7815 23.9144 21.7373C24.6156 21.6939 25.2922 21.9247 25.8192 22.3895C26.8924 23.3354 27.0063 24.9887 26.0737 26.0747C25.7029 26.5064 25.5339 27.0755 25.6092 27.6393C25.6842 28.2033 25.9965 28.7082 26.4673 29.0276L32.6927 33.2503C34.1266 34.2229 36.0484 34.1153 37.3659 32.9886C44.4516 26.9291 53.0789 23.1741 62.3155 22.1305C64.0925 21.9295 65.4907 20.5528 65.7156 18.7828L66.6417 11.4991C66.7135 10.9348 66.541 10.3665 66.1676 9.93718C65.7944 9.5081 65.2557 9.25843 64.6869 9.25097C63.2551 9.23287 62.0903 8.05398 62.0903 6.62328C62.0903 5.17288 63.2705 3.99292 64.7209 3.99292H71.8438C73.2942 3.99292 74.4742 5.17314 74.4742 6.62354C74.4742 8.05424 73.3094 9.23287 71.8776 9.25124C71.3088 9.25843 70.7701 9.5081 70.3969 9.93744C70.0234 10.3668 69.8512 10.9351 69.9228 11.4994L70.8712 18.9587C71.0897 20.6795 72.444 22.0506 74.1643 22.2928C82.2404 23.4318 89.9092 26.7063 96.3414 31.7621C97.6952 32.826 99.6106 32.863 100.999 31.8528L107.005 27.4859C107.469 27.1479 107.766 26.6265 107.818 26.0542C107.871 25.4819 107.675 24.9149 107.279 24.4981C105.871 23.012 105.902 20.7144 107.35 19.2667C108.046 18.5704 108.967 18.1985 109.941 18.207C110.916 18.2201 111.826 18.6209 112.503 19.3359L113.136 20.004C113.895 20.8041 115.158 20.8379 115.959 20.0796C116.759 19.321 116.793 18.0574 116.034 17.2573L115.401 16.5892C113.976 15.0856 112.056 14.2423 109.994 14.2146C107.929 14.1843 105.991 14.9786 104.526 16.4433C102.087 18.8828 101.596 22.4917 103.079 25.4039L98.7335 28.5637C96.5056 26.8194 94.1404 25.2743 91.6692 23.9351L93.3003 20.6165C93.7866 19.6268 93.3786 18.4306 92.3892 17.9443C91.3996 17.458 90.2034 17.8658 89.717 18.8554L88.0851 22.1762C83.8705 20.3064 79.4072 19.0095 74.8191 18.3532L74.1183 12.8388C76.6502 11.9045 78.4674 9.46045 78.4674 6.62354C78.4668 2.97106 75.4958 0 71.8438 0H64.7209C61.069 0 58.0976 2.97133 58.0976 6.62328C58.0976 9.46019 59.9148 11.904 62.4467 12.8385L61.7685 18.174C56.6427 18.7636 51.6916 20.1235 47.0489 22.1917L43.7752 16.101C43.2532 15.1298 42.0427 14.7662 41.0717 15.2876C40.1006 15.8096 39.7363 17.0201 40.2582 17.9912L43.4667 23.961C40.4198 25.6208 37.5326 27.6017 34.8484 29.8877L30.246 26.7659C31.2191 24.2487 30.5875 21.2696 28.4594 19.3939C27.1322 18.2238 25.4285 17.6417 23.6634 17.7524C21.8979 17.8637 20.2811 18.6558 19.1113 19.983L14.4811 25.2362C13.2908 26.5865 12.6813 28.3989 12.8082 30.2089C12.9336 31.9912 13.7345 33.5998 15.0641 34.7379C17.223 36.5863 20.1893 36.8194 22.5362 35.5298L26.0822 39.5573C23.8551 42.7608 22.0022 46.2197 20.5739 49.8421L15.0649 49.2573C14.7609 46.5961 12.8564 44.3104 10.1007 43.6165C8.40299 43.189 6.62733 43.4648 5.10027 44.3927C3.55033 45.3344 2.42387 46.8788 2.00969 48.6302L0.175205 56.3869C-0.252807 58.1974 0.111855 60.0074 1.1763 61.3524C2.19602 62.6415 3.77871 63.4038 5.54612 63.4653C8.23291 64.0019 10.9173 62.8009 12.368 60.614L17.4032 62.5015C17.1775 64.4446 17.0631 66.4212 17.0631 68.3773C17.0631 69.3928 17.0945 70.4045 17.1544 71.412L11.5029 72.181C10.4105 72.3298 9.64524 73.3357 9.79403 74.4283C9.93032 75.4294 10.7866 76.1558 11.7696 76.1558C11.859 76.1558 11.9501 76.1497 12.0414 76.1375L17.548 75.3882C18.0013 78.6555 18.7703 81.8573 19.8454 84.9559L16.6901 86.6174C15.7146 87.1311 15.3404 88.3385 15.8538 89.314C16.2113 89.9928 16.9044 90.3806 17.622 90.3806C17.9356 90.3806 18.2539 90.3066 18.5504 90.1503L21.3147 88.6946C22.5069 91.4064 23.9413 94.0224 25.6134 96.513L22.6701 100.758C19.4019 97.9517 14.462 97.9821 11.2274 100.978C7.74846 104.2 7.53978 109.653 10.7621 113.132L17.6713 120.591C20.8939 124.07 26.346 124.279 29.8254 121.056C31.5109 119.495 32.4875 117.371 32.5753 115.076C32.6504 113.112 32.0677 111.224 30.9202 109.663L35.1982 107.158C38.5142 109.932 42.1574 112.248 46.0225 114.072L43.9578 118.976C43.5301 119.992 44.0071 121.163 45.0233 121.591C45.2762 121.697 45.5386 121.748 45.7968 121.748C46.5759 121.748 47.3164 121.288 47.6377 120.525L49.6976 115.632C52.4198 116.663 55.2304 117.46 58.0974 118.01V119.751C58.0974 120.854 58.9912 121.747 60.0937 121.747C61.1962 121.747 62.09 120.854 62.09 119.751V118.614C63.9141 118.815 65.7545 118.917 67.6028 118.917C68.7468 118.917 69.9079 118.878 71.0554 118.8L72.8997 124.046C70.6774 125.455 69.4211 128.124 69.9122 130.828C69.9683 132.591 70.7256 134.182 72.0096 135.219C73.0091 136.027 74.2695 136.452 75.5974 136.452C76.0435 136.452 76.4974 136.404 76.9512 136.306L84.6663 134.648C86.4263 134.27 87.9941 133.176 88.968 131.645C89.9271 130.137 90.2393 128.367 89.8469 126.662C89.21 123.892 86.964 121.941 84.3097 121.583L83.8537 116.243C87.2357 115.095 90.4967 113.572 93.5699 111.727L96.2895 115.437C96.6805 115.97 97.2868 116.253 97.9012 116.253C98.3108 116.253 98.7242 116.127 99.0798 115.866C99.9691 115.215 100.161 113.965 99.5097 113.076L96.9155 109.537C99.1895 107.917 101.334 106.112 103.311 104.138L107.343 106.487C106.42 109.269 107.21 112.633 109.372 114.396C110.743 115.515 112.468 116.03 114.228 115.853C115.988 115.673 117.573 114.82 118.691 113.449L123.62 107.403C124.766 105.997 125.247 104.22 124.938 102.528C124.638 100.883 123.614 99.4266 122.118 98.5096C119.905 96.8109 116.362 96.7379 113.839 98.1966L110.583 94.9721C112.835 91.3407 114.616 87.4375 115.878 83.3668L121.427 83.5412C121.952 86.1886 124.079 88.3672 126.881 88.8133C128.629 89.0917 130.379 88.6725 131.811 87.6339C133.243 86.5953 134.185 85.061 134.463 83.3139L135.689 75.6096C135.975 73.8196 135.498 72.0418 134.381 70.733Z" fill="black" fill-opacity="0.29"/>
</svg>
