<svg width="262" height="264" viewBox="0 0 262 264" fill="none" xmlns="http://www.w3.org/2000/svg">
<path d="M250.419 136.372C255.396 136.372 258.822 140.389 258.041 145.3L255.673 160.17C254.975 164.561 251.179 167.695 246.869 167.695C246.402 167.695 245.929 167.659 245.452 167.582C240.623 166.816 237.32 162.301 238.024 157.478L223.534 157.021C221.916 156.97 220.468 158.007 219.99 159.558C217.601 167.32 214.232 174.65 210.02 181.404C209.131 182.832 209.342 184.681 210.539 185.862L219.409 194.646C220.894 192.761 223.103 191.775 225.332 191.775C226.929 191.775 228.537 192.278 229.903 193.326C233.787 193.326 235.98 197.779 233.622 200.856L224.243 213.086C222.764 215.022 220.524 216.034 218.264 216.034C216.661 216.034 215.054 215.531 213.687 214.483C210.41 211.971 209.773 207.297 212.234 204.005L201.129 197.533C199.716 196.706 197.929 196.947 196.768 198.103C186.669 208.232 174.26 216.06 160.401 220.729C158.83 221.263 157.818 222.789 157.962 224.443L159.164 238.542C163.905 237.587 168.543 240.576 169.627 245.287C170.741 250.146 167.449 255.02 162.574 256.068L147.689 259.268C147.062 259.402 146.456 259.468 145.865 259.468C141.818 259.468 138.756 256.438 138.756 252.056C137.729 247.269 140.744 242.564 145.5 241.48L140.688 227.787C140.148 226.261 138.659 225.28 137.046 225.393C134.868 225.547 132.67 225.624 130.456 225.624C107.532 225.624 86.5387 217.385 70.256 203.717C69.0952 202.741 67.4463 202.602 66.1365 203.368L53.6754 210.667L55.6273 212.767C57.8976 215.223 59.0225 218.33 59.0225 221.428C59.0225 224.854 57.651 228.269 54.939 230.781C49.7717 235.563 41.7074 235.255 36.9253 230.088L23.5961 215.695C21.3206 213.245 20.2009 210.138 20.2009 207.04C20.2009 203.614 21.5723 200.198 24.2844 197.687C29.4466 192.905 37.5109 193.213 42.2929 198.375L44.2448 200.481L52.6943 188.292C53.5367 187.075 53.5521 185.467 52.7251 184.239C42.6576 169.308 36.7815 151.314 36.7815 131.95C36.7815 128.2 37.0023 124.507 37.4338 120.876C37.6239 119.227 36.6787 117.66 35.1275 117.075L21.86 112.102C20.8481 116.15 17.2166 118.867 13.2101 118.867C12.5321 118.867 11.8387 118.79 11.1504 118.626C6.10634 118.626 2.92685 114.609 4.08769 109.699L7.62674 94.7308C8.77218 89.882 13.7186 86.6871 18.5521 87.9044C23.2365 89.0858 26.1284 93.7857 25.0805 98.501L39.4935 100.032C41.1064 100.206 42.6268 99.2715 43.2175 97.7613C45.9244 90.8682 49.4224 84.3705 53.5984 78.3865C54.5486 77.0202 54.4561 75.1916 53.3569 73.9434L43.9982 63.3109C40.7571 66.8962 35.2457 67.2506 31.5731 64.107C27.7875 60.8659 27.5409 54.9846 30.8334 51.2453L39.7709 41.111C41.5379 39.1077 43.9982 38.0856 46.474 38.0856C48.5697 38.0856 50.6757 38.8201 52.3707 40.3148C56.0433 43.5508 56.4183 49.129 53.2388 52.8273L65.2531 60.9738C66.5937 61.8829 68.3709 61.7853 69.6037 60.7324C83.4362 48.8979 100.762 41.0288 119.818 38.8766C121.472 38.6917 122.782 37.4075 122.992 35.7587L124.78 21.7053C122.34 21.6745 120.136 20.6677 118.544 19.0549C116.947 17.442 115.966 15.2282 115.966 12.7832C115.966 7.85216 119.962 3.85083 124.893 3.85083H138.638C141.104 3.85083 143.338 4.85245 144.951 6.46531C146.564 8.0833 147.565 10.3177 147.565 12.7832C147.565 17.6731 143.631 21.6436 138.756 21.7053L140.585 36.0977C140.79 37.7106 142.049 38.9793 143.656 39.2053C160.355 41.5578 175.636 48.3123 188.293 58.2617C189.561 59.2582 191.333 59.2993 192.638 58.349L204.226 49.9252C202.197 47.7833 201.185 45.0404 201.185 42.2975C201.185 39.457 202.269 36.6165 204.431 34.4541C208.741 30.1445 215.701 30.237 219.897 34.6595L232.302 47.7524C234.305 49.8687 235.302 52.5705 235.302 55.2723C235.302 58.1692 234.156 61.0611 231.886 63.2133C227.505 67.3687 220.581 67.1838 216.425 62.7972L216.322 62.6894L207.287 73.8047C206.275 75.0529 206.214 76.8199 207.138 78.1348C217.848 93.3645 224.13 111.923 224.13 131.95C224.13 133.337 224.099 134.713 224.043 136.08C223.966 137.739 225.029 139.233 226.621 139.701L240.223 143.676C241.05 138.869 245.59 135.607 250.419 136.372V136.372Z" fill="#6484E2" fill-opacity="0.2"/>
<path d="M115.965 201.919C127.475 201.919 136.806 192.588 136.806 181.078C136.806 169.568 127.475 160.237 115.965 160.237C104.455 160.237 95.1243 169.568 95.1243 181.078C95.1243 192.588 104.455 201.919 115.965 201.919Z" fill="#24366D" fill-opacity="0.2"/>
<path d="M180.391 134.864C188.529 134.864 195.127 128.266 195.127 120.127C195.127 111.988 188.529 105.391 180.391 105.391C172.252 105.391 165.654 111.988 165.654 120.127C165.654 128.266 172.252 134.864 180.391 134.864Z" fill="#4B62A7" fill-opacity="0.2"/>
<path d="M71.4271 125.196C71.4271 92.9515 84.0208 63.6386 104.537 41.9066C91.5087 45.6506 79.6316 52.1529 69.6036 60.7324C68.3709 61.7854 66.5937 61.8829 65.253 60.9738L53.2388 52.8273C56.4183 49.129 56.0433 43.5508 52.3707 40.3148C50.6757 38.8201 48.5697 38.0856 46.474 38.0856C43.9982 38.0856 41.5378 39.1077 39.7709 41.111L30.8334 51.2453C27.5409 54.9846 27.7875 60.8659 31.573 64.107C35.2456 67.2506 40.7571 66.8962 43.9982 63.3109L53.3569 73.9434C54.4561 75.1916 54.5486 77.0202 53.5983 78.3865C49.4224 84.3705 45.9244 90.8682 43.2175 97.7613C42.6268 99.2715 41.1064 100.206 39.4935 100.032L25.0805 98.501C26.1284 93.7857 23.2365 89.0858 18.552 87.9044C13.7186 86.6871 8.77215 89.882 7.62671 94.7308L4.08767 109.699C2.92682 114.609 6.10631 118.626 11.1503 118.626C11.8386 118.79 12.5321 118.867 13.2101 118.867C17.2165 118.867 20.848 116.15 21.8599 112.102L35.1275 117.075C36.6787 117.66 37.6238 119.227 37.4338 120.876C37.0023 124.507 36.7815 128.2 36.7815 131.95C36.7815 151.314 42.6576 169.308 52.7251 184.239C53.5521 185.467 53.5367 187.075 52.6943 188.292L44.2448 200.481L42.2929 198.375C37.5108 193.213 29.4465 192.905 24.2844 197.687C21.5723 200.198 20.2009 203.614 20.2009 207.04C20.2009 210.138 21.3206 213.245 23.5961 215.695L36.9253 230.088C41.7073 235.255 49.7716 235.563 54.939 230.781C57.651 228.269 59.0225 224.854 59.0225 221.428C59.0225 218.33 57.8976 215.223 55.6272 212.767L53.6754 210.667L66.1365 203.368C67.4463 202.602 69.0951 202.741 70.256 203.717C85.084 216.164 103.83 224.11 124.372 225.429C92.4138 203.574 71.4271 166.835 71.4271 125.196V125.196Z" fill="#24366D" fill-opacity="0.2"/>
<path d="M103.153 143.107C121.948 143.107 137.184 127.871 137.184 109.076C137.184 90.2806 121.948 75.0443 103.153 75.0443C84.3582 75.0443 69.1218 90.2806 69.1218 109.076C69.1218 127.871 84.3582 143.107 103.153 143.107Z" fill="#4B62A7" fill-opacity="0.2"/>
<path d="M134.001 87.0985C132.766 85.3665 130.36 84.9643 128.628 86.2001C126.896 87.436 126.494 89.8419 127.73 91.5734C131.395 96.7094 133.332 102.761 133.332 109.076C133.332 125.716 119.794 139.254 103.153 139.254C86.5125 139.254 72.9743 125.716 72.9743 109.076C72.9743 92.4348 86.5125 78.8966 103.153 78.8966C107.881 78.8966 112.415 79.966 116.631 82.0745C118.533 83.0268 120.848 82.2558 121.8 80.3528C122.752 78.4502 121.981 76.1362 120.078 75.1839C114.783 72.535 109.088 71.1918 103.153 71.1918C82.2641 71.1918 65.2695 88.1864 65.2695 109.076C65.2695 129.965 82.2641 146.959 103.153 146.959C124.042 146.959 141.036 129.965 141.036 109.076C141.037 101.148 138.604 93.5484 134.001 87.0985V87.0985Z" fill="black" fill-opacity="0.2"/>
<path d="M115.965 164.089C123.038 164.089 129.441 168.544 131.899 175.175C132.638 177.17 134.855 178.188 136.85 177.447C138.845 176.708 139.863 174.491 139.123 172.496C135.551 162.86 126.244 156.385 115.965 156.385C102.349 156.385 91.272 167.462 91.272 181.078C91.272 194.694 102.349 205.771 115.965 205.771C125.408 205.771 133.886 200.511 138.09 192.045C139.036 190.139 138.259 187.827 136.353 186.881C134.447 185.936 132.135 186.713 131.189 188.618C128.296 194.446 122.462 198.066 115.966 198.066C106.598 198.066 98.9772 190.445 98.9772 181.078C98.9772 171.71 106.597 164.089 115.965 164.089V164.089Z" fill="black" fill-opacity="0.2"/>
<path d="M198.98 120.128C198.98 109.877 190.641 101.539 180.391 101.539C170.141 101.539 161.802 109.878 161.802 120.128C161.802 130.378 170.141 138.717 180.391 138.717C190.641 138.717 198.98 130.378 198.98 120.128V120.128ZM180.391 131.012C174.389 131.012 169.506 126.129 169.506 120.128C169.506 114.126 174.389 109.243 180.391 109.243C186.392 109.243 191.275 114.126 191.275 120.128C191.275 126.129 186.392 131.012 180.391 131.012Z" fill="black" fill-opacity="0.2"/>
<path d="M176.587 85.2704C178.714 85.2704 180.439 83.5456 180.439 81.418C180.439 79.2905 178.714 77.5657 176.587 77.5657H165.654C163.527 77.5657 161.802 79.2905 161.802 81.418C161.802 83.5456 163.527 85.2704 165.654 85.2704H176.587Z" fill="black" fill-opacity="0.2"/>
<path d="M69.1219 156.385C66.9944 156.385 65.2695 158.11 65.2695 160.237C65.2695 162.365 66.9944 164.089 69.1219 164.089H78.0692C80.1967 164.089 81.9215 162.365 81.9215 160.237C81.9215 158.11 80.1967 156.385 78.0692 156.385H69.1219Z" fill="black" fill-opacity="0.2"/>
<path d="M152.273 149.194C150.145 149.194 148.421 150.918 148.421 153.046C148.421 155.174 150.145 156.898 152.273 156.898H159.49C161.618 156.898 163.343 155.174 163.343 153.046C163.343 150.918 161.618 149.194 159.49 149.194H152.273Z" fill="black" fill-opacity="0.2"/>
<path d="M172.331 180.895C170.203 180.895 168.479 182.62 168.479 184.747C168.479 186.875 170.203 188.6 172.331 188.6H180.861C182.988 188.6 184.713 186.875 184.713 184.747C184.713 182.62 182.988 180.895 180.861 180.895H172.331Z" fill="black" fill-opacity="0.2"/>
<path d="M259.319 136.496C257.226 134.043 254.107 132.606 250.725 132.525C245.426 131.81 240.363 134.515 237.862 138.972L227.897 136.06C227.955 134.688 227.984 133.306 227.984 131.95C227.984 123.603 226.935 115.396 224.891 107.477L234.509 102.903C236.43 101.989 237.247 99.6911 236.333 97.7696C235.419 95.8485 233.122 95.0308 231.2 95.9451L222.64 100.016C219.716 91.5724 215.619 83.5281 210.404 76.0781L216.919 68.0606C219.038 69.2985 221.446 69.9904 223.968 70.0582C227.915 70.1619 231.67 68.7258 234.538 66.008C240.365 60.4853 240.683 51.1816 235.246 45.2695C233.806 43.7033 231.368 43.6016 229.803 45.0414C228.237 46.4817 228.134 48.9184 229.575 50.4845C232.179 53.3163 232.028 57.7717 229.238 60.416C227.864 61.7175 226.065 62.4033 224.174 62.356C222.282 62.3052 220.524 61.5208 219.222 60.1473L219.117 60.0369C218.354 59.232 217.276 58.799 216.175 58.8375C215.067 58.8801 214.031 59.3974 213.332 60.2577L204.3 71.3726C202.209 73.945 202.082 77.6376 203.99 80.3512C214.646 95.5095 220.279 113.352 220.279 131.949C220.279 133.256 220.25 134.59 220.192 135.912C220.04 139.355 222.24 142.433 225.541 143.398L239.143 147.373C240.197 147.682 241.333 147.524 242.264 146.943C243.195 146.362 243.834 145.411 244.021 144.329C244.489 141.606 247.09 139.744 249.816 140.178C250.016 140.21 250.219 140.226 250.422 140.226C251.681 140.226 252.759 140.677 253.459 141.497C254.159 142.317 254.435 143.453 254.237 144.697L251.871 159.564C251.657 160.903 250.936 162.078 249.838 162.875C248.741 163.671 247.4 163.991 246.06 163.779C243.333 163.345 241.44 160.768 241.84 158.033C241.999 156.947 241.687 155.845 240.981 155.003C240.277 154.161 239.246 153.66 238.149 153.626L223.658 153.17C220.324 153.078 217.295 155.225 216.311 158.423C214.047 165.774 210.832 172.821 206.754 179.368C204.901 182.342 205.343 186.139 207.829 188.601L215.874 196.568C217.758 198.435 220.765 198.517 222.719 196.754C224.776 194.899 229.049 194.647 231.032 196.264C231.189 196.392 231.356 196.507 231.532 196.609C232.621 197.241 233.326 198.174 233.519 199.234C233.713 200.294 233.381 201.415 232.586 202.391L223.072 214.059C222.216 215.11 221.001 215.764 219.652 215.901C218.303 216.039 216.982 215.642 215.931 214.785C213.998 213.209 213.502 209.29 214.93 206.873C215.602 205.736 215.788 204.403 215.454 203.12C215.123 201.845 214.279 200.733 213.14 200.069L203.072 194.202C200.151 192.499 196.438 192.985 194.046 195.385C184.272 205.182 172.213 212.684 159.173 217.081C155.908 218.182 153.831 221.345 154.124 224.772L155.328 238.872C155.421 239.966 155.977 240.968 156.855 241.626C157.734 242.285 158.852 242.538 159.927 242.321C162.646 241.775 165.255 243.456 165.875 246.152C166.166 247.416 165.921 248.749 165.187 249.904C164.407 251.13 163.161 252.004 161.768 252.304L146.88 255.503C145.665 255.763 144.573 255.565 143.805 254.945C143.037 254.324 142.614 253.297 142.614 252.055C142.614 251.783 142.585 251.511 142.528 251.245C141.948 248.546 143.668 245.851 146.361 245.236C147.432 244.991 148.347 244.302 148.877 243.341C149.407 242.38 149.502 241.238 149.138 240.202L144.324 226.509C143.216 223.357 140.116 221.319 136.779 221.552C134.679 221.699 132.552 221.774 130.458 221.774C109.368 221.774 88.8686 214.313 72.7365 200.767C70.3341 198.748 66.8993 198.46 64.1914 200.046L51.7333 207.341C50.7261 207.931 50.0403 208.946 49.8693 210.102C49.6983 211.257 50.0604 212.427 50.854 213.284L52.8033 215.389C54.4177 217.131 55.2559 219.398 55.1655 221.771C55.0746 224.145 54.0648 226.341 52.3225 227.955C48.7254 231.287 43.0881 231.07 39.7566 227.473L26.4238 213.079C23.0922 209.482 23.308 203.845 26.9051 200.513C30.5016 197.181 36.1389 197.397 39.471 200.994L41.4198 203.099C42.2134 203.955 43.3531 204.404 44.5171 204.324C45.682 204.242 46.7463 203.636 47.412 202.676L55.8636 190.489C57.6254 187.948 57.6475 184.651 55.9206 182.089C45.9209 167.253 40.6354 149.916 40.6354 131.951C40.6354 128.413 40.846 124.838 41.2605 121.326C41.6648 117.906 39.699 114.675 36.4815 113.469L23.2171 108.497C22.1887 108.111 21.0448 108.183 20.0735 108.693C19.1017 109.204 18.3934 110.105 18.1273 111.17C17.4575 113.85 14.7254 115.515 12.0401 114.878C11.7493 114.809 11.4519 114.775 11.153 114.775C9.91458 114.775 8.9068 114.363 8.31456 113.615C7.72283 112.866 7.55384 111.791 7.83841 110.586L11.3785 95.6163C11.7062 94.231 12.6051 93.0044 13.845 92.2509C15.0151 91.54 16.3521 91.3233 17.6126 91.6402C20.2949 92.3156 21.9237 94.9619 21.3202 97.6653C21.0813 98.7368 21.3104 99.8591 21.9514 100.751C22.592 101.642 23.5818 102.219 24.6738 102.334L39.0878 103.865C42.4147 104.218 45.5865 102.287 46.8085 99.1698C49.3762 92.6213 52.7247 86.3701 56.7599 80.59C58.7354 77.7609 58.5258 73.9804 56.2514 71.3967L46.8886 60.7647C46.1633 59.9408 45.1206 59.4652 44.0229 59.458C42.9356 59.4662 41.8764 59.9121 41.1398 60.7267C39.2825 62.7808 36.1811 62.9811 34.0802 61.1823C33.094 60.3379 32.4982 59.121 32.4021 57.7558C32.3004 56.3073 32.7822 54.8634 33.7243 53.7945L42.6597 43.6566C43.556 42.6396 44.795 42.0324 46.1484 41.9472C47.5014 41.8634 48.8071 42.3088 49.8241 43.2056C51.8951 45.0311 52.115 48.2214 50.3152 50.3171C49.5996 51.1502 49.2735 52.2484 49.4188 53.3363C49.5637 54.4247 50.1662 55.3991 51.0748 56.0155L63.0881 64.164C65.8551 66.0409 69.5637 65.8334 72.1062 63.6591C85.7796 51.9659 102.428 44.7199 120.252 42.7058C123.681 42.318 126.379 39.6614 126.813 36.2457L128.6 22.1902C128.739 21.1012 128.406 20.0046 127.686 19.1761C126.966 18.3481 125.926 17.8663 124.828 17.8519C122.065 17.817 119.818 15.542 119.818 12.7811C119.818 9.98226 122.095 7.70525 124.894 7.70525H138.639C141.438 7.70525 143.715 9.98278 143.715 12.7817C143.715 15.5425 141.467 17.817 138.704 17.8524C137.607 17.8663 136.567 18.3481 135.847 19.1766C135.126 20.0051 134.794 21.1017 134.932 22.1907L136.762 36.5852C137.184 39.9059 139.797 42.5517 143.117 43.0192C158.702 45.2171 173.501 51.536 185.913 61.2922C188.525 63.3453 192.222 63.4167 194.902 61.4674L206.49 53.0405C207.387 52.3881 207.959 51.3819 208.06 50.2775C208.162 49.1732 207.783 48.0791 207.02 47.2747C204.303 44.407 204.362 39.9732 207.156 37.1795C208.5 35.8358 210.278 35.1182 212.157 35.1346C214.038 35.1598 215.793 35.9334 217.101 37.313L218.323 38.6023C219.787 40.1463 222.225 40.2116 223.769 38.7482C225.313 37.2843 225.378 34.846 223.915 33.3019L222.693 32.0127C219.943 29.1111 216.238 27.4838 212.26 27.4304C208.275 27.3719 204.534 28.9046 201.708 31.7312C197 36.4388 196.053 43.4029 198.914 49.0227L190.529 55.1202C186.23 51.7543 181.666 48.7725 176.897 46.1884L180.044 39.7842C180.983 37.8744 180.195 35.5661 178.286 34.6277C176.377 33.6892 174.068 34.4761 173.13 36.3859L169.981 42.7942C161.847 39.1858 153.235 36.6833 144.381 35.4166L143.028 24.7754C147.914 22.9725 151.421 18.2561 151.421 12.7817C151.42 5.73335 145.686 0 138.639 0H124.894C117.847 0 112.113 5.73387 112.113 12.7811C112.113 18.2556 115.62 22.9714 120.505 24.7748L119.197 35.0709C109.305 36.2087 99.7508 38.8329 90.7917 42.824L84.4744 31.0706C83.4671 29.1963 81.131 28.4947 79.2572 29.5009C77.3834 30.5082 76.6803 32.8443 77.6875 34.7181L83.8791 46.2382C77.9993 49.4413 72.4278 53.2639 67.2481 57.6751L58.3666 51.651C60.2445 46.7935 59.0256 41.0447 54.919 37.425C52.3579 35.167 49.0701 34.0437 45.6641 34.2573C42.257 34.472 39.1371 36.0007 36.8796 38.5617L27.9447 48.6991C25.6477 51.3048 24.4714 54.8023 24.7164 58.2951C24.9583 61.7345 26.5039 64.8385 29.0696 67.0348C33.2358 70.6016 38.9599 71.0516 43.4888 68.5629L50.3316 76.335C46.0339 82.5167 42.4584 89.1916 39.7021 96.1819L29.0711 95.0534C28.4845 89.9179 24.8094 85.5072 19.4916 84.1681C16.2155 83.3432 12.789 83.8753 9.84215 85.6659C6.85117 87.4832 4.67741 90.4634 3.87817 93.8432L0.338098 108.811C-0.48785 112.305 0.21585 115.798 2.26993 118.394C4.23772 120.881 7.29188 122.352 10.7025 122.471C15.8873 123.506 21.0674 121.189 23.8668 116.969L33.5835 120.611C33.148 124.361 32.9271 128.175 32.9271 131.95C32.9271 133.909 32.9877 135.862 33.1033 137.806L22.1975 139.29C20.0895 139.577 18.6127 141.518 18.8998 143.627C19.1628 145.558 20.8152 146.96 22.7122 146.96C22.8847 146.96 23.0604 146.948 23.2366 146.925L33.863 145.479C34.7377 151.784 36.2216 157.963 38.2963 163.942L32.2075 167.148C30.3249 168.14 29.6028 170.469 30.5936 172.352C31.2834 173.662 32.621 174.41 34.0058 174.41C34.6108 174.41 35.2252 174.267 35.7974 173.966L41.1316 171.157C43.4323 176.39 46.2003 181.438 49.4271 186.244L43.7471 194.435C37.4405 189.02 27.9077 189.079 21.6658 194.86C14.9524 201.079 14.5497 211.6 20.768 218.314L34.1008 232.708C40.3195 239.422 50.8406 239.825 57.555 233.606C60.8075 230.594 62.692 226.495 62.8616 222.065C63.0064 218.275 61.882 214.631 59.6677 211.621L67.9231 206.786C74.3221 212.139 81.3524 216.607 88.8111 220.128L84.8267 229.593C84.0013 231.553 84.9218 233.812 86.8829 234.638C87.3708 234.843 87.8773 234.94 88.3755 234.94C89.879 234.94 91.308 234.054 91.9279 232.581L95.9031 223.139C101.156 225.128 106.58 226.666 112.112 227.727V231.087C112.112 233.215 113.837 234.94 115.965 234.94C118.092 234.94 119.817 233.215 119.817 231.087V228.894C123.337 229.281 126.888 229.478 130.455 229.478C132.663 229.478 134.903 229.402 137.118 229.251L140.677 239.374C136.388 242.094 133.964 247.245 134.912 252.462C135.02 255.864 136.481 258.935 138.959 260.937C140.888 262.495 143.32 263.315 145.883 263.315C146.744 263.315 147.619 263.223 148.495 263.034L163.383 259.835C166.779 259.106 169.805 256.993 171.684 254.039C173.535 251.129 174.138 247.715 173.38 244.424C172.151 239.079 167.817 235.314 162.695 234.622L161.815 224.318C168.341 222.103 174.634 219.163 180.565 215.603L185.813 222.762C186.567 223.791 187.737 224.337 188.923 224.337C189.713 224.337 190.511 224.094 191.197 223.591C192.913 222.333 193.284 219.923 192.027 218.206L187.021 211.377C191.409 208.251 195.547 204.768 199.363 200.958L207.144 205.492C205.363 210.86 206.886 217.352 211.059 220.754C213.705 222.912 217.032 223.907 220.429 223.564C223.825 223.219 226.884 221.571 229.041 218.926L238.554 207.258C240.766 204.546 241.692 201.117 241.097 197.851C240.518 194.676 238.541 191.867 235.654 190.097C231.384 186.819 224.547 186.678 219.679 189.493L213.396 183.271C217.741 176.263 221.178 168.731 223.614 160.875L234.321 161.212C235.334 166.321 239.44 170.525 244.846 171.386C248.22 171.923 251.597 171.114 254.36 169.11C257.123 167.106 258.941 164.145 259.477 160.773L261.844 145.906C262.395 142.452 261.474 139.021 259.319 136.496V136.496Z" fill="black" fill-opacity="0.2"/>
</svg>
